<svg xmlns="http://www.w3.org/2000/svg" xmlns:xlink="http://www.w3.org/1999/xlink" width="1024" zoomAndPan="magnify" viewBox="0 0 768 767.999994" height="1024" preserveAspectRatio="xMidYMid meet" version="1.0"><defs><g/></defs><g fill="#000000" fill-opacity="1"><g transform="translate(1.142581, 496.124995)"><g><path d="M 187.734375 -114.46875 C 200.304688 -110.476562 210.15625 -103.816406 217.28125 -94.484375 C 224.414062 -85.160156 227.984375 -73.6875 227.984375 -60.0625 C 227.984375 -40.769531 220.488281 -25.9375 205.5 -15.5625 C 190.507812 -5.1875 168.65625 0 139.9375 0 L 26.09375 0 L 26.09375 -220.125 L 133.640625 -220.125 C 160.472656 -220.125 181.066406 -214.984375 195.421875 -204.703125 C 209.785156 -194.429688 216.96875 -180.492188 216.96875 -162.890625 C 216.96875 -152.191406 214.398438 -142.648438 209.265625 -134.265625 C 204.128906 -125.878906 196.953125 -119.28125 187.734375 -114.46875 Z M 76.734375 -181.75 L 76.734375 -129.875 L 127.359375 -129.875 C 139.929688 -129.875 149.46875 -132.070312 155.96875 -136.46875 C 162.46875 -140.875 165.71875 -147.375 165.71875 -155.96875 C 165.71875 -164.5625 162.46875 -171.003906 155.96875 -175.296875 C 149.46875 -179.597656 139.929688 -181.75 127.359375 -181.75 Z M 136.15625 -38.359375 C 149.570312 -38.359375 159.6875 -40.5625 166.5 -44.96875 C 173.3125 -49.375 176.71875 -56.1875 176.71875 -65.40625 C 176.71875 -83.644531 163.195312 -92.765625 136.15625 -92.765625 L 76.734375 -92.765625 L 76.734375 -38.359375 Z M 136.15625 -38.359375 "/></g></g></g><g fill="#000000" fill-opacity="1"><g transform="translate(241.704064, 496.124995)"><g><path d="M 132.703125 3.78125 C 109.847656 3.78125 89.25 -1.144531 70.90625 -11 C 52.5625 -20.851562 38.203125 -34.425781 27.828125 -51.71875 C 17.453125 -69.019531 12.265625 -88.46875 12.265625 -110.0625 C 12.265625 -131.65625 17.453125 -151.097656 27.828125 -168.390625 C 38.203125 -185.679688 52.5625 -199.253906 70.90625 -209.109375 C 89.25 -218.960938 109.847656 -223.890625 132.703125 -223.890625 C 155.546875 -223.890625 176.085938 -218.960938 194.328125 -209.109375 C 212.566406 -199.253906 226.925781 -185.679688 237.40625 -168.390625 C 247.894531 -151.097656 253.140625 -131.65625 253.140625 -110.0625 C 253.140625 -88.46875 247.894531 -69.019531 237.40625 -51.71875 C 226.925781 -34.425781 212.566406 -20.851562 194.328125 -11 C 176.085938 -1.144531 155.546875 3.78125 132.703125 3.78125 Z M 132.703125 -39.625 C 145.703125 -39.625 157.441406 -42.609375 167.921875 -48.578125 C 178.398438 -54.554688 186.625 -62.890625 192.59375 -73.578125 C 198.570312 -84.273438 201.5625 -96.4375 201.5625 -110.0625 C 201.5625 -123.6875 198.570312 -135.84375 192.59375 -146.53125 C 186.625 -157.226562 178.398438 -165.5625 167.921875 -171.53125 C 157.441406 -177.507812 145.703125 -180.5 132.703125 -180.5 C 119.703125 -180.5 107.960938 -177.507812 97.484375 -171.53125 C 87.003906 -165.5625 78.773438 -157.226562 72.796875 -146.53125 C 66.816406 -135.84375 63.828125 -123.6875 63.828125 -110.0625 C 63.828125 -96.4375 66.816406 -84.273438 72.796875 -73.578125 C 78.773438 -62.890625 87.003906 -54.554688 97.484375 -48.578125 C 107.960938 -42.609375 119.703125 -39.625 132.703125 -39.625 Z M 132.703125 -39.625 "/></g></g></g><g fill="#000000" fill-opacity="1"><g transform="translate(507.107879, 496.124995)"><g><path d="M 26.09375 -220.125 L 126.09375 -220.125 C 149.988281 -220.125 171.109375 -215.5625 189.453125 -206.4375 C 207.796875 -197.320312 222.050781 -184.484375 232.21875 -167.921875 C 242.382812 -151.359375 247.46875 -132.070312 247.46875 -110.0625 C 247.46875 -88.050781 242.382812 -68.765625 232.21875 -52.203125 C 222.050781 -35.640625 207.796875 -22.796875 189.453125 -13.671875 C 171.109375 -4.554688 149.988281 0 126.09375 0 L 26.09375 0 Z M 123.578125 -41.828125 C 145.585938 -41.828125 163.144531 -47.957031 176.25 -60.21875 C 189.351562 -72.476562 195.90625 -89.09375 195.90625 -110.0625 C 195.90625 -131.019531 189.351562 -147.628906 176.25 -159.890625 C 163.144531 -172.160156 145.585938 -178.296875 123.578125 -178.296875 L 77.046875 -178.296875 L 77.046875 -41.828125 Z M 123.578125 -41.828125 "/></g></g></g></svg>